<?xml version="1.0" encoding="utf-8"?>
<!-- Generator: Adobe Illustrator 18.1.1, SVG Export Plug-In . SVG Version: 6.00 Build 0)  -->
<!DOCTYPE svg PUBLIC "-//W3C//DTD SVG 1.1//EN" "http://www.w3.org/Graphics/SVG/1.1/DTD/svg11.dtd">
<svg version="1.1" id="Layer_1" xmlns="http://www.w3.org/2000/svg" xmlns:xlink="http://www.w3.org/1999/xlink" x="0px" y="0px"
	 viewBox="128 26.2 768 566.8" enable-background="new 128 26.2 768 566.8" xml:space="preserve">
<g>
	<path fill="#FFFFFF" d="M732.5,257.7c121.1,0,163.5,59.1,163.5,59.1V525H568.8V316.8C568.8,317,611.2,257.7,732.5,257.7
		L732.5,257.7z"/>
	<path fill="#FFFFFF" d="M732.5,26.2c51,0,92.7,41.7,92.7,92.7s-41.7,92.7-92.7,92.7c-51,0-92.7-41.7-92.7-92.7
		C639.8,67.6,681.5,26.2,732.5,26.2L732.5,26.2z"/>
	<path fill="#FFFFFF" d="M291.5,257.7C170.4,257.7,128,317,128,317v208.3h327.2V317C455.2,317,412.8,257.7,291.5,257.7L291.5,257.7z
		"/>
	<path fill="#FFFFFF" d="M291.5,26.2c-51,0-92.7,41.7-92.7,92.7s41.7,92.7,92.7,92.7s92.7-41.7,92.7-92.7
		C384.2,67.6,342.8,26.2,291.5,26.2L291.5,26.2z"/>
	<path fill="#FFFFFF" d="M332.1,576.9V347l3.1-4.2c1.8-2.6,48.7-65.9,176.8-65.9s174.9,63.3,177,65.9l3.1,4.2v229.9H332.1
		L332.1,576.9z"/>
	<path fill="#33C0CC" d="M512,293.1c121.3,0,163.8,59.1,163.8,59.1v208.3H348.5V352.2C348.5,352.2,390.9,293.1,512,293.1 M512,260.3
		c-56,0-104.4,11.5-143.4,33.8c-30.5,17.4-44.3,35.4-46.6,38.8l-6.2,8.6v10.4v208.3V593h32.8h327.2h32.8v-32.8V351.9v-10.4l-6.2-8.6
		c-2.3-3.4-16.1-21.3-46.6-38.8C616.4,271.7,568,260.3,512,260.3L512,260.3L512,260.3z"/>
	<path fill="#FFFFFF" d="M512,61.4c-51,0-92.7,41.7-92.7,92.7s41.7,92.7,92.7,92.7s92.7-41.7,92.7-92.7S563,61.4,512,61.4L512,61.4z
		"/>
</g>
</svg>
