<?xml version="1.0" encoding="utf-8"?>
<!-- Generator: Adobe Illustrator 18.1.1, SVG Export Plug-In . SVG Version: 6.00 Build 0)  -->
<!DOCTYPE svg PUBLIC "-//W3C//DTD SVG 1.1//EN" "http://www.w3.org/Graphics/SVG/1.1/DTD/svg11.dtd">
<svg version="1.1" id="Layer_1" xmlns="http://www.w3.org/2000/svg" xmlns:xlink="http://www.w3.org/1999/xlink" x="0px" y="0px"
	 viewBox="384.6 -7.4 611.5 570.1" enable-background="new 384.6 -7.4 611.5 570.1" xml:space="preserve">
<g>
	<polygon fill="#FFFFFF" points="541.3,-7.4 384.6,149.3 384.6,562.7 821.4,562.7 821.4,358.1 774.3,405.2 774.3,515.6 431.4,515.6 
		431.4,182.7 574.6,182.7 574.6,39.7 774.3,39.7 774.3,249 774.3,277.7 821.4,277.7 821.4,201.9 821.4,173.8 821.4,-7.4 	"/>
	<polygon fill="#FFFFFF" points="630.8,365.4 602.2,452.6 689.4,424 	"/>
	<polygon fill="#FFFFFF" points="983.6,121.2 933.6,71.2 921.1,58.7 877.4,102.7 647.5,332.3 722.5,407.1 983.6,146.2 996.1,133.7 	
		"/>
</g>
</svg>
