<?xml version="1.0" encoding="utf-8"?>
<!-- Generator: Adobe Illustrator 18.1.1, SVG Export Plug-In . SVG Version: 6.00 Build 0)  -->
<!DOCTYPE svg PUBLIC "-//W3C//DTD SVG 1.1//EN" "http://www.w3.org/Graphics/SVG/1.1/DTD/svg11.dtd">
<svg version="1.1" id="Layer_1" xmlns="http://www.w3.org/2000/svg" xmlns:xlink="http://www.w3.org/1999/xlink" x="0px" y="0px"
	 viewBox="470.9 69 493.1 630" enable-background="new 470.9 69 493.1 630" xml:space="preserve">
<path fill="#FFFFFF" d="M717.4,69c93.7,0,179.6,12.5,246.5,32.8v38.8v183.3V492c0,45.3-36.7,87.5-122.6,140.8
	c-51,31.8-101.8,55.7-103.9,56.8l-20,9.4l-20-9.4c-5.7-2.6-55.2-26.6-103.9-56.8c-85.9-53.4-122.6-95.3-122.6-140.8V323.9V140.6
	v-38.8C537.8,81.5,623.7,69,717.4,69 M830.2,238.7L671.4,408l-64.6-69l-47.4,50.5L671.4,509l206.2-219.7L830.2,238.7L830.2,238.7z"
	/>
</svg>
