<?xml version="1.0" encoding="utf-8"?>
<!-- Generator: Adobe Illustrator 18.1.1, SVG Export Plug-In . SVG Version: 6.00 Build 0)  -->
<!DOCTYPE svg PUBLIC "-//W3C//DTD SVG 1.1//EN" "http://www.w3.org/Graphics/SVG/1.1/DTD/svg11.dtd">
<svg version="1.1" id="Layer_1" xmlns="http://www.w3.org/2000/svg" xmlns:xlink="http://www.w3.org/1999/xlink" x="0px" y="0px"
	 viewBox="0 0 560.1 560.1" enable-background="new 0 0 560.1 560.1" xml:space="preserve">
<path fill="#FFFFFF" d="M31.6,546.3V13.7C31.6,6.1,37.7,0,45.2,0h24.7c7.6,0,13.7,6.1,13.7,13.7v532.7c0,7.6-6.1,13.7-13.7,13.7
	H45.2C37.7,560,31.6,553.9,31.6,546.3z"/>
<path fill="#FFFFFF" d="M474,546.3V13.7C474,6.1,480.1,0,487.6,0h24.7c7.6,0,13.7,6.1,13.7,13.7v532.7c0,7.6-6.1,13.7-13.7,13.7
	h-24.7C480.1,560,474,553.9,474,546.3z"/>
<path fill="#FFFFFF" d="M175.7,546.3V13.7c0-7.6,6.1-13.7,13.6-13.7H214c7.6,0,13.7,6.1,13.7,13.7v532.7c0,7.6-6.1,13.7-13.7,13.7
	h-24.7C181.9,560,175.7,553.9,175.7,546.3z"/>
<path fill="#FFFFFF" d="M329.9,546.3V13.7C329.9,6.1,336,0,343.5,0h24.7c7.6,0,13.7,6.1,13.7,13.7v532.7c0,7.6-6.1,13.7-13.7,13.7
	h-24.7C336,560,329.9,553.9,329.9,546.3z"/>
<path fill="#FFFFFF" d="M13.7,47.3h532.7c7.6,0,13.7,6.1,13.7,13.7v24.7c0,7.6-6.1,13.7-13.7,13.7H13.7C6.1,99.3,0,93.2,0,85.6V60.9
	C0,53.3,6.1,47.3,13.7,47.3z"/>
<path fill="#FFFFFF" d="M13.7,227.2h532.7c7.6,0,13.7,6.1,13.7,13.7v24.7c0,7.6-6.1,13.7-13.7,13.7H13.7c-7.6,0-13.7-6.1-13.7-13.7
	v-24.7C0,233.3,6.1,227.2,13.7,227.2z"/>
<path fill="#FFFFFF" d="M13.7,407.2h532.7c7.6,0,13.7,6.1,13.7,13.7v24.7c0,7.6-6.1,13.7-13.7,13.7H13.7c-7.6,0-13.7-6.1-13.7-13.7
	v-24.7C0,413.3,6.1,407.2,13.7,407.2z"/>
</svg>
